<svg width="20" height="20" viewBox="0 0 20 20" xmlns="http://www.w3.org/2000/svg" class="icon__3e6C globalNavTopMenuIcon__2ySH"><path fill-rule="evenodd" clip-rule="evenodd" d="M2.03 7.1a1.5 1.5 0 011.06-1.84l7.84-2.1a1.5 1.5 0 011.84 1.06l.3 1.08c.14.55-.2 1.01-.47 1.24a.56.56 0 00-.17.25.7.7 0 00-.03.21h-1a1.56 1.56 0 01.55-1.22c.06-.06.1-.12.13-.17a.13.13 0 00.02-.05l-.3-1.08a.5.5 0 00-.6-.36l-7.85 2.1a.5.5 0 00-.36.62l.3 1.08s0 .02.03.04c.05.03.12.06.2.08.24.04.51.15.76.37.25.23.44.55.56.97.11.43.1.8 0 1.12-.1.32-.29.55-.47.7a.52.52 0 00-.13.17.13.13 0 00-.02.06l.3 1.08a.5.5 0 00.48.37v1a1.5 1.5 0 01-1.45-1.11l-.3-1.09c-.14-.54.2-1 .47-1.23a.56.56 0 00.17-.26.97.97 0 00-.02-.55.97.97 0 00-.26-.49.56.56 0 00-.28-.13c-.34-.07-.87-.3-1.01-.84l-.3-1.08z"/><path fill-rule="evenodd" clip-rule="evenodd" d="M7.5 8C6.67 8 6 8.67 6 9.5v1.17c0 .56.45.92.8 1.07.1.04.2.1.28.21.07.1.14.26.14.55a.9.9 0 01-.14.55.65.65 0 01-.29.21c-.34.15-.79.5-.79 1.07v1.17c0 .83.67 1.5 1.5 1.5h9c.83 0 1.5-.67 1.5-1.5v-1.17c0-.56-.45-.92-.8-1.07a.65.65 0 01-.28-.21.9.9 0 01-.14-.55.9.9 0 01.14-.55c.08-.1.18-.17.29-.21.34-.15.79-.5.79-1.07V9.5c0-.83-.67-1.5-1.5-1.5h-9zM7 9.5c0-.28.22-.5.5-.5h9c.28 0 .5.22.5.5v1.17l-.03.04a.41.41 0 01-.15.1c-.23.1-.5.26-.7.55-.22.3-.34.67-.34 1.14 0 .47.12.85.33 1.14.21.29.48.45.71.55.07.03.12.07.15.1a.1.1 0 01.03.04v1.17a.5.5 0 01-.5.5h-9a.5.5 0 01-.5-.5v-1.17l.03-.04a.41.41 0 01.15-.1c.23-.1.5-.26.7-.55.22-.3.34-.67.34-1.14 0-.47-.12-.85-.33-1.14-.21-.29-.48-.45-.71-.55a.41.41 0 01-.15-.1.11.11 0 01-.03-.04V9.5zm0 4.84zm10-3.68zm0 3.68z"/></svg>