<svg width="20" height="20" viewBox="0 0 20 20" xmlns="http://www.w3.org/2000/svg" class="icon__3e6C"><path d="M10.75 14.25a.75.75 0 10-1.5 0 .75.75 0 001.5 0zM8.5 8c0-.78.55-1.5 1.57-1.5.85 0 1.43.72 1.43 1.5 0 .42-.25.8-.65 1.22l-.27.28-.02.03-.3.32c-.18.19-.37.43-.47.7-.16.34-.2.72-.22.98a4.07 4.07 0 000 .47v.04l.5-.04-.5.04a.5.5 0 001-.09v-.02a2.74 2.74 0 010-.34 1.67 1.67 0 01.15-.68c.03-.09.11-.2.28-.4l.27-.28.03-.03.29-.3c.4-.44.91-1.07.91-1.9 0-1.22-.92-2.5-2.43-2.5A2.47 2.47 0 007.5 8a.5.5 0 001 0z"/><path fill-rule="evenodd" clip-rule="evenodd" d="M18 10a8 8 0 10-16 0 8 8 0 0016 0zM3 10a7 7 0 1114 0 7 7 0 01-14 0z"/></svg>