<svg xmlns="http://www.w3.org/2000/svg" width="24" height="24" viewBox="0 0 24 24" class="icon__3e6C"><path fill-rule="evenodd" clip-rule="evenodd" d="M12 22a10 10 0 110-20 10 10 0 010 20zm0-18.5c-.5 0-1.37.45-2.2 2.1-.4.8-.73 1.78-.96 2.9h6.32c-.23-1.12-.57-2.1-.97-2.9-.82-1.65-1.68-2.1-2.19-2.1zm-7.75 5a8.53 8.53 0 014.71-4.44A12.42 12.42 0 007.31 8.5H4.25zM3.74 10a8.52 8.52 0 00.3 5h3.19a19.4 19.4 0 01-.13-5H3.75h-.01zm1.05 6.5a8.53 8.53 0 004.17 3.44 11.5 11.5 0 01-1.43-3.44H4.8zM15.04 4.06a12.42 12.42 0 011.65 4.44h3.06a8.53 8.53 0 00-4.71-4.44zM20.26 10H16.9a19.83 19.83 0 01-.13 5h3.19a8.48 8.48 0 00.3-5zm-1.05 6.5a8.53 8.53 0 01-4.17 3.44 11.5 11.5 0 001.43-3.44h2.74zm-5.02 1.9c.28-.55.52-1.19.72-1.9H9.1c.2.71.44 1.35.72 1.9.82 1.65 1.68 2.1 2.19 2.1.5 0 1.37-.45 2.2-2.1zM15.5 12c0 1.06-.09 2.07-.25 3h-6.5a17.76 17.76 0 01-.14-5h6.78c.07.64.11 1.3.11 2z"/></svg>