<svg xmlns="http://www.w3.org/2000/svg" viewBox="0 0 64 64" width="64" height="64" preserveAspectRatio="xMidYMid meet" style="width: 100%; height: 100%; transform: translate3d(0px, 0px, 0px); content-visibility: visible;"><defs><clipPath id="__lottie_element_282"><rect width="64" height="64" x="0" y="0"/></clipPath><filter id="__lottie_element_287" filterUnits="objectBoundingBox" x="0%" y="0%" width="100%" height="100%"><feComponentTransfer in="SourceGraphic"><feFuncA type="table" tableValues="1.0 0.0"/></feComponentTransfer></filter><mask id="__lottie_element_286" mask-type="alpha"><g filter="url(#__lottie_element_287)"><rect width="64" height="64" x="0" y="0" fill="#ffffff" opacity="0"/><g transform="matrix(2,0,0,2,13.5,14.75)" opacity="1" style="display: block;"><path fill="rgb(255,255,255)" fill-opacity="1" d=" M9.87399959564209,3.6659998893737793 C9.87399959564209,3.6659998893737793 9.881999969482422,3.6540000438690186 9.881999969482422,3.6540000438690186 C9.890000343322754,3.6429998874664307 9.904000282287598,3.624000072479248 9.92199993133545,3.5980000495910645 C9.960000038146973,3.546999931335449 10.017999649047852,3.4709999561309814 10.095999717712402,3.378000020980835 C10.251999855041504,3.190999984741211 10.479999542236328,2.941999912261963 10.769000053405762,2.694000005722046 C11.359999656677246,2.187999963760376 12.128999710083008,1.75 13,1.75 C14.29699993133545,1.75 15.21399974822998,2.2279999256134033 15.8149995803833,2.9040000438690186 C16.42799949645996,3.5940001010894775 16.75,4.533999919891357 16.75,5.5 C16.75,6.670000076293945 16.211999893188477,7.2270002365112305 15.470000267028809,7.968999862670898 C15.470000267028809,7.968999862670898 9.25,14.189000129699707 9.25,14.189000129699707 C9.25,14.189000129699707 3.0309998989105225,7.968999862670898 3.0309998989105225,7.968999862670898 C2.2880001068115234,7.2270002365112305 1.75,6.670000076293945 1.75,5.5 C1.75,4.533999919891357 2.072999954223633,3.5940001010894775 2.686000108718872,2.9040000438690186 C3.2860000133514404,2.2279999256134033 4.203999996185303,1.75 5.5,1.75 C6.372000217437744,1.75 7.140999794006348,2.187999963760376 7.730999946594238,2.694000005722046 C8.020000457763672,2.941999912261963 8.24899959564209,3.190999984741211 8.404999732971191,3.378000020980835 C8.482000350952148,3.4709999561309814 8.539999961853027,3.546999931335449 8.57800006866455,3.5980000495910645 C8.597000122070312,3.624000072479248 8.609999656677246,3.6429998874664307 8.618000030517578,3.6540000438690186 C8.618000030517578,3.6540000438690186 8.62600040435791,3.6659998893737793 8.62600040435791,3.6659998893737793 C8.765999794006348,3.874000072479248 9,4 9.25,4 C9.50100040435791,4 9.734999656677246,3.874000072479248 9.87399959564209,3.6659998893737793z"/></g></g></mask><clipPath id="__lottie_element_294"><path d="M0,0 L64,0 L64,64 L0,64z"/></clipPath><clipPath id="__lottie_element_301"><path d="M0,0 L64,0 L64,64 L0,64z"/></clipPath><clipPath id="__lottie_element_308"><path d="M0,0 L64,0 L64,64 L0,64z"/></clipPath><clipPath id="__lottie_element_315"><path d="M0,0 L64,0 L64,64 L0,64z"/></clipPath></defs><g clip-path="url(#__lottie_element_282)"><g clip-path="url(#__lottie_element_315)" transform="matrix(1,0,0,1,0,0)" opacity="1" style="display: block;"><g style="display: none;"><g><path/></g></g></g><g clip-path="url(#__lottie_element_308)" transform="matrix(0.2676587998867035,0.9635137319564819,-0.9635137319564819,0.2676587998867035,54.267356872558594,-7.39752197265625)" opacity="1" style="display: block;"><g style="display: none;"><g><path/></g></g></g><g clip-path="url(#__lottie_element_301)" transform="matrix(-1,0,0,-1,64,64)" opacity="1" style="display: block;"><g style="display: none;"><g><path/></g></g></g><g clip-path="url(#__lottie_element_294)" transform="matrix(-0.2676587998867035,-0.9635137319564819,0.9635137319564819,-0.2676587998867035,9.732641220092773,71.39752197265625)" opacity="1" style="display: block;"><g style="display: none;"><g><path/></g></g></g><g mask="url(#__lottie_element_286)" style="display: block;"><g transform="matrix(2,0,0,2,13.5,14.75)" opacity="1"><path fill="rgb(0,0,0)" fill-opacity="1" d=" M1.565000057220459,1.9079999923706055 C2.4639999866485596,0.8960000276565552 3.796999931335449,0.25 5.5,0.25 C6.879000186920166,0.25 7.985000133514404,0.9359999895095825 8.706999778747559,1.5549999475479126 C8.913999557495117,1.7330000400543213 9.095999717712402,1.909999966621399 9.25,2.072999954223633 C9.404000282287598,1.909999966621399 9.586000442504883,1.7330000400543213 9.793000221252441,1.5549999475479126 C10.515999794006348,0.9359999895095825 11.621999740600586,0.25 13,0.25 C14.704000473022461,0.25 16.03700065612793,0.8960000276565552 16.93600082397461,1.9079999923706055 C17.822999954223633,2.9049999713897705 18.25,4.215000152587891 18.25,5.5 C18.25,7.310999870300293 17.308000564575195,8.253000259399414 16.554000854492188,9.006999969482422 C16.554000854492188,9.006999969482422 9.779999732971191,15.779999732971191 9.779999732971191,15.779999732971191 C9.48799991607666,16.072999954223633 9.012999534606934,16.072999954223633 8.720000267028809,15.779999732971191 C8.720000267028809,15.779999732971191 1.9470000267028809,9.006999969482422 1.9470000267028809,9.006999969482422 C1.1920000314712524,8.253000259399414 0.25,7.310999870300293 0.25,5.5 C0.25,4.215000152587891 0.6779999732971191,2.9049999713897705 1.565000057220459,1.9079999923706055z M9.87399959564209,3.6659998893737793 C9.87399959564209,3.6659998893737793 9.881999969482422,3.6540000438690186 9.881999969482422,3.6540000438690186 C9.890000343322754,3.6429998874664307 9.904000282287598,3.624000072479248 9.92199993133545,3.5980000495910645 C9.960000038146973,3.546999931335449 10.017999649047852,3.4709999561309814 10.095999717712402,3.378000020980835 C10.251999855041504,3.190999984741211 10.479999542236328,2.941999912261963 10.769000053405762,2.694000005722046 C11.359999656677246,2.187999963760376 12.128999710083008,1.75 13,1.75 C14.29699993133545,1.75 15.21399974822998,2.2279999256134033 15.8149995803833,2.9040000438690186 C16.42799949645996,3.5940001010894775 16.75,4.533999919891357 16.75,5.5 C16.75,6.670000076293945 16.211999893188477,7.2270002365112305 15.470000267028809,7.968999862670898 C15.470000267028809,7.968999862670898 9.25,14.189000129699707 9.25,14.189000129699707 C9.25,14.189000129699707 3.0309998989105225,7.968999862670898 3.0309998989105225,7.968999862670898 C2.2880001068115234,7.2270002365112305 1.75,6.670000076293945 1.75,5.5 C1.75,4.533999919891357 2.072999954223633,3.5940001010894775 2.686000108718872,2.9040000438690186 C3.2860000133514404,2.2279999256134033 4.203999996185303,1.75 5.5,1.75 C6.372000217437744,1.75 7.140999794006348,2.187999963760376 7.730999946594238,2.694000005722046 C8.020000457763672,2.941999912261963 8.24899959564209,3.190999984741211 8.404999732971191,3.378000020980835 C8.482000350952148,3.4709999561309814 8.539999961853027,3.546999931335449 8.57800006866455,3.5980000495910645 C8.597000122070312,3.624000072479248 8.609999656677246,3.6429998874664307 8.618000030517578,3.6540000438690186 C8.618000030517578,3.6540000438690186 8.62600040435791,3.6659998893737793 8.62600040435791,3.6659998893737793 C8.765999794006348,3.874000072479248 9,4 9.25,4 C9.50100040435791,4 9.734999656677246,3.874000072479248 9.87399959564209,3.6659998893737793z"/></g></g><g style="display: none;"><g><path/><g/></g></g></g></svg>