<svg viewBox="0 0 18 22" fill="#fff" xmlns="http://www.w3.org/2000/svg" class="socialIcon__148q"><path fill-rule="evenodd" clip-rule="evenodd" d="M5.093 21.497c.553-.9 1.38-2.378 1.687-3.556.165-.635.845-3.225.845-3.225.442.843 1.735 1.557 3.11 1.557 4.093 0 7.042-3.762 7.042-8.438C17.777 3.353 14.12 0 9.411 0 3.555 0 .444 3.93.444 8.21c0 1.99 1.06 4.466 2.755 5.255.257.12.395.067.454-.181.045-.189.274-1.11.377-1.539a.406.406 0 00-.094-.389c-.561-.68-1.01-1.93-1.01-3.096 0-2.992 2.266-5.887 6.127-5.887 3.334 0 5.669 2.271 5.669 5.52 0 3.669-1.854 6.212-4.266 6.212-1.332 0-2.33-1.102-2.01-2.452C8.83 10.04 9.57 8.3 9.57 7.136c0-1.042-.559-1.911-1.717-1.911-1.361 0-2.455 1.408-2.455 3.295 0 1.201.406 2.014.406 2.014s-1.345 5.684-1.592 6.743c-.272 1.172-.165 2.818-.047 3.892 0 0-.03.702.262.816.293.115.666-.488.666-.488"/></svg>