<svg width="20" height="20" viewBox="0 0 20 20" xmlns="http://www.w3.org/2000/svg" class="icon__3e6C globalNavTopMenuIcon__2ySH"><path fill-rule="evenodd" clip-rule="evenodd" d="M11 4a1 1 0 011-1h4a1 1 0 011 1v4a1 1 0 01-1 1h-4a1 1 0 01-1-1V4zm1 0h4v4h-4V4zM3 4a1 1 0 011-1h4a1 1 0 011 1v4a1 1 0 01-1 1H4a1 1 0 01-1-1V4zm1 0h4v4H4V4zM4 11a1 1 0 00-1 1v4a1 1 0 001 1h4a1 1 0 001-1v-4a1 1 0 00-1-1H4zm4 1H4v4h4v-4zM11 12.02a1 1 0 011-1h4a1 1 0 011 1v4a1 1 0 01-1 1h-4a1 1 0 01-1-1v-4zm1 0h4v4h-4v-4z"/></svg>