<svg viewBox="0 0 15 15" fill="none" xmlns="http://www.w3.org/2000/svg" class="starIcon__XhTv md__3Xpg"><path clip-rule="evenodd" d="M7.5 1.167l1.565 3.317c.242.52.728.885 1.295.974l3.583.544-2.62 2.673a1.782 1.782 0 00-.48 1.532l.609 3.718L8.315 12.2a1.689 1.689 0 00-1.63 0l-3.137 1.725.61-3.718a1.782 1.782 0 00-.481-1.532L1.056 6.002l3.583-.544a1.72 1.72 0 001.296-.974L7.5 1.167zM7.5 0a.77.77 0 00-.701.456L5.087 4.083a.785.785 0 01-.588.448l-3.827.582a.828.828 0 00-.434 1.395l2.77 2.823c.185.192.269.46.224.724l-.653 3.987a.809.809 0 00.77.958.751.751 0 00.364-.096l3.423-1.882a.752.752 0 01.728 0l3.422 1.882a.75.75 0 00.364.096.809.809 0 00.77-.958l-.653-3.987a.841.841 0 01.225-.724l2.769-2.823a.828.828 0 00-.433-1.396L10.5 4.531a.785.785 0 01-.589-.448L8.201.456A.77.77 0 007.5 0z"/></svg>