<svg width="20" height="20" viewBox="0 0 20 20" xmlns="http://www.w3.org/2000/svg" class="icon__3e6C globalNavTopMenuIcon__2ySH"><path fill-rule="evenodd" clip-rule="evenodd" d="M7.21 7.5a14.37 14.37 0 000 5h2.8l-.01.15c0 .29.04.57.1.85H7.44c.17.64.39 1.22.64 1.71C8.74 16.55 9.47 17 10 17c.39 0 .9-.25 1.42-.94a15.43 15.43 0 001.23 1.5A7.99 7.99 0 012 10a8 8 0 0116-.22 5.31 5.31 0 00-1.11-1.05c-.08-.43-.2-.84-.35-1.23a.5.5 0 01-.04 0h-2.7l.08.55c-.34.05-.66.14-.98.26l-.11-.81H7.2zM10 3c-.52 0-1.26.45-1.93 1.79-.25.5-.47 1.07-.64 1.71h5.14a9.06 9.06 0 00-.64-1.71C11.26 3.45 10.53 3 10 3zm2.23.36a7.02 7.02 0 013.83 3.14H13.6a8.84 8.84 0 00-1.37-3.14zM7.76 16.64A8.84 8.84 0 016.4 13.5H3.94a7.02 7.02 0 003.82 3.14zM6.2 12.5a15.46 15.46 0 010-5H3.5a.5.5 0 01-.04 0 6.98 6.98 0 000 5H6.2zm.2-6c.31-1.27.78-2.35 1.36-3.14A7.02 7.02 0 003.94 6.5H6.4z"/><path fill-rule="evenodd" clip-rule="evenodd" d="M18 12.65c0 2.19-3.5 5.35-3.5 5.35S11 14.84 11 12.65c0-.97.39-1.85 1.04-2.55.65-.7 1.54-1.1 2.46-1.1.92 0 1.8.4 2.46 1.1.65.7 1.04 1.58 1.04 2.55zm-2-.15a1.5 1.5 0 11-3 0 1.5 1.5 0 013 0z"/></svg>