<svg viewBox="0 0 15 15" fill="none" xmlns="http://www.w3.org/2000/svg" class="starIcon__XhTv md__3Xpg"><path clip-rule="evenodd" d="M14.761 6.507a.828.828 0 00-.433-1.395L10.5 4.53a.785.785 0 01-.589-.447L8.201.456a.767.767 0 00-1.402 0L5.087 4.083a.785.785 0 01-.588.447l-.582.089-3.245.493a.828.828 0 00-.433 1.395l2.769 2.824c.185.192.269.46.225.724l-.654 3.987a.808.808 0 00.77.958.752.752 0 00.364-.096l3.423-1.883a.752.752 0 01.728 0l3.423 1.883a.75.75 0 00.363.096.808.808 0 00.771-.958l-.654-3.987a.841.841 0 01.225-.724l2.77-2.824zm-3.438 2.167a1.782 1.782 0 00-.48 1.532l.609 3.719L8.315 12.2c-.25-.138-.53-.21-.815-.21V1.166l1.565 3.317c.242.52.728.886 1.295.974l3.584.545-2.621 2.672z"/></svg>